<svg xmlns="http://www.w3.org/2000/svg" xmlns:xlink="http://www.w3.org/1999/xlink" version="1.1" width="12.149999618530273" height="17.350000381469727" viewBox="0.9000000953674316 0.3500000238418579 12.149999618530273 17.350000381469727">
  <!-- Exported by Scratch - http://scratch.mit.edu/ -->
  <g id="ID0.5789362951181829">
    <path id="ID0.3719224510714412" fill="#00ff00" stroke="none" d="M 11.55 11.35 L 11.55 6.2 L 6.7 1.85 L 2.65 1.85 L 2.35 2.15 L 2.35 15.95 L 2.65 16.25 L 6.7 16.25 L 11.55 11.35 M 12.05 6 L 12.05 11.6 L 7 16.7 L 1.9 16.7 L 1.9 1.35 L 7 1.35 L 12.05 6 " stroke-width="1"/>
    <path id="ID0.8192282551899552" fill="none" stroke="#00ff00" stroke-width="2" stroke-linecap="square" stroke-linejoin="miter" d="M 12.05 6 L 7 1.35 L 1.9 1.35 L 1.9 16.7 L 7 16.7 L 12.05 11.6 L 12.05 6 M 11.55 11.35 L 6.7 16.25 L 2.65 16.25 L 2.35 15.95 L 2.35 2.15 L 2.65 1.85 L 6.7 1.85 L 11.55 6.2 L 11.55 11.35 "/>
  </g>
</svg>