<svg xmlns="http://www.w3.org/2000/svg" xmlns:xlink="http://www.w3.org/1999/xlink" version="1.1" width="12.200000762939453" height="17.350000381469727" viewBox="0.9000000953674316 0.3500000238418579 12.200000762939453 17.350000381469727">
  <!-- Exported by Scratch - http://scratch.mit.edu/ -->
  <g id="ID0.05524422042071819">
    <path id="ID0.21862544026225805" fill="#00ff00" stroke="none" d="M 11.85 1.35 L 12.1 1.35 L 12.1 1.85 L 2.65 8.85 L 2.65 9.3 L 12.1 16.25 L 12.1 16.7 L 11.85 16.7 L 2.35 9.65 L 2.35 16.7 L 1.9 16.7 L 1.9 1.35 L 2.35 1.35 L 2.35 8.3 L 11.85 1.35 " stroke-width="1"/>
    <path id="ID0.31499803764745593" fill="none" stroke="#00ff00" stroke-width="2" stroke-linecap="square" stroke-linejoin="miter" d="M 11.85 1.35 L 2.35 8.3 L 2.35 1.35 L 1.9 1.35 L 1.9 16.7 L 2.35 16.7 L 2.35 9.65 L 11.85 16.7 L 12.1 16.7 L 12.1 16.25 L 2.65 9.3 L 2.65 8.85 L 12.1 1.85 L 12.1 1.35 L 11.85 1.35 "/>
  </g>
</svg>