<svg xmlns="http://www.w3.org/2000/svg" xmlns:xlink="http://www.w3.org/1999/xlink" version="1.1" width="12.200000762939453" height="17.350000381469727" viewBox="0.9000000953674316 0.3500000238418579 12.200000762939453 17.350000381469727">
  <!-- Exported by Scratch - http://scratch.mit.edu/ -->
  <g id="ID0.40019583981484175">
    <path id="ID0.19494878873229027" fill="#00ff00" stroke="none" d="M 11.55 2.15 L 11.35 1.85 L 2.65 1.85 L 2.35 2.15 L 2.35 15.95 L 2.65 16.25 L 11.55 16.25 L 11.55 12.1 L 11.35 11.9 L 6.7 11.9 L 6.7 11.35 L 12.1 11.35 L 12.1 16.7 L 1.9 16.7 L 1.9 1.35 L 12.1 1.35 L 12.1 6.5 L 11.55 6.5 L 11.55 2.15 " stroke-width="1"/>
    <path id="ID0.5928521477617323" fill="none" stroke="#00ff00" stroke-width="2" stroke-linecap="square" stroke-linejoin="miter" d="M 11.55 2.15 L 11.55 6.5 L 12.1 6.5 L 12.1 1.35 L 1.9 1.35 L 1.9 16.7 L 12.1 16.7 L 12.1 11.35 L 6.7 11.35 L 6.7 11.9 L 11.35 11.9 L 11.55 12.1 L 11.55 16.25 L 2.65 16.25 L 2.35 15.95 L 2.35 2.15 L 2.65 1.85 L 11.35 1.85 L 11.55 2.15 "/>
  </g>
</svg>