<svg xmlns="http://www.w3.org/2000/svg" xmlns:xlink="http://www.w3.org/1999/xlink" version="1.1" width="12.200000762939453" height="17.299999237060547" viewBox="0.9000000953674316 0.3500000238418579 12.200000762939453 17.299999237060547">
  <!-- Exported by Scratch - http://scratch.mit.edu/ -->
  <g id="ID0.24957640981301665">
    <path id="ID0.974594206083566" fill="#00ff00" stroke="none" d="M 11.1 2.9 L 11.55 1.35 L 12.1 1.35 L 12.1 1.65 L 7.25 16.65 L 6.7 16.65 L 1.9 1.65 L 1.9 1.35 L 2.15 1.35 L 2.35 1.35 L 2.45 1.5 L 2.45 1.65 L 3.2 3.8 L 4.4 7.65 L 7 15.9 L 9.6 7.65 L 11.1 2.9 " stroke-width="1"/>
    <path id="ID0.18157168943434954" fill="none" stroke="#00ff00" stroke-width="2" stroke-linecap="square" stroke-linejoin="miter" d="M 3.2 3.8 L 2.45 1.65 L 2.45 1.5 L 2.35 1.35 L 2.15 1.35 L 1.9 1.35 L 1.9 1.65 L 6.7 16.65 L 7.25 16.65 L 12.1 1.65 L 12.1 1.35 L 11.55 1.35 L 11.1 2.9 "/>
    <path id="ID0.9266855497844517" fill="none" stroke="#00ff00" stroke-width="2" stroke-linecap="square" stroke-linejoin="bevel" d="M 11.1 2.9 L 9.6 7.65 L 7 15.9 L 4.4 7.65 L 3.2 3.8 "/>
  </g>
</svg>