<svg xmlns="http://www.w3.org/2000/svg" xmlns:xlink="http://www.w3.org/1999/xlink" version="1.1" width="12.15000057220459" height="17.30000114440918" viewBox="0.9500000476837158 0.3999999761581421 12.15000057220459 17.30000114440918">
  <!-- Exported by Scratch - http://scratch.mit.edu/ -->
  <g id="ID0.11046357126906514">
    <path id="ID0.5344196264632046" fill="#00ff00" stroke="none" d="M 11.6 2.2 L 11.35 1.9 L 1.95 1.9 L 1.95 1.4 L 12.1 1.4 L 12.1 16.7 L 1.95 16.7 L 1.95 16.25 L 11.35 16.25 L 11.6 15.95 L 11.6 9.6 L 11.35 9.3 L 1.95 9.3 L 1.95 8.85 L 11.35 8.85 L 11.6 8.55 L 11.6 2.2 " stroke-width="1"/>
    <path id="ID0.7797630853019655" fill="none" stroke="#00ff00" stroke-width="2" stroke-linecap="square" stroke-linejoin="miter" d="M 11.6 2.2 L 11.6 8.55 L 11.35 8.85 L 1.95 8.85 L 1.95 9.3 L 11.35 9.3 L 11.6 9.6 L 11.6 15.95 L 11.35 16.25 L 1.95 16.25 L 1.95 16.7 L 12.1 16.7 L 12.1 1.4 L 1.95 1.4 L 1.95 1.9 L 11.35 1.9 L 11.6 2.2 "/>
  </g>
</svg>