<svg xmlns="http://www.w3.org/2000/svg" xmlns:xlink="http://www.w3.org/1999/xlink" version="1.1" width="12.149999618530273" height="17.30000114440918" viewBox="0.9000000953674316 0.3999999761581421 12.149999618530273 17.30000114440918">
  <!-- Exported by Scratch - http://scratch.mit.edu/ -->
  <g id="ID0.2109603863209486">
    <path id="ID0.09904643334448338" fill="#00ff00" stroke="none" d="M 11.55 1.4 L 12.05 1.4 L 12.05 16.7 L 11.55 16.7 L 7 12.15 L 2.35 16.7 L 1.9 16.7 L 1.9 1.4 L 2.35 1.4 L 2.35 15.95 L 6.7 11.65 L 7.2 11.65 L 11.55 15.95 L 11.55 1.4 " stroke-width="1"/>
    <path id="ID0.5310849007219076" fill="none" stroke="#00ff00" stroke-width="2" stroke-linecap="square" stroke-linejoin="miter" d="M 2.35 1.4 L 1.9 1.4 L 1.9 16.7 L 2.35 16.7 L 7 12.15 L 11.55 16.7 L 12.05 16.7 L 12.05 1.4 L 11.55 1.4 M 11.55 15.95 L 7.2 11.65 L 6.7 11.65 L 2.35 15.95 "/>
    <path id="ID0.2424143673852086" fill="none" stroke="#00ff00" stroke-width="2" stroke-linecap="square" stroke-linejoin="bevel" d="M 2.35 15.95 L 2.35 1.4 M 11.55 1.4 L 11.55 15.95 "/>
  </g>
</svg>