<svg xmlns="http://www.w3.org/2000/svg" xmlns:xlink="http://www.w3.org/1999/xlink" version="1.1" width="7.399999618530273" height="4.099999904632568" viewBox="0.2999999523162842 0.3999999761581421 7.399999618530273 4.099999904632568">
  <!-- Exported by Scratch - http://scratch.mit.edu/ -->
  <g id="ID0.17254160810261965">
    <path id="ID0.4647895572707057" fill="#00ff00" stroke="none" d="M 2.05 2.2 L 2.05 1.4 L 2.6 1.4 L 2.6 2.45 L 1.85 3.5 L 1.3 3.5 L 1.3 3.2 L 2.05 2.2 M 5.9 3.5 L 5.45 3.5 L 5.45 3.2 L 6.2 2.2 L 6.2 1.4 L 6.7 1.4 L 6.7 2.45 L 5.9 3.5 " stroke-width="1"/>
    <path id="ID0.9755998849868774" fill="none" stroke="#00ff00" stroke-width="2" stroke-linecap="square" stroke-linejoin="miter" d="M 5.9 3.5 L 6.7 2.45 L 6.7 1.4 L 6.2 1.4 L 6.2 2.2 L 5.45 3.2 L 5.45 3.5 L 5.9 3.5 M 2.05 2.2 L 1.3 3.2 L 1.3 3.5 L 1.85 3.5 L 2.6 2.45 L 2.6 1.4 L 2.05 1.4 L 2.05 2.2 "/>
  </g>
</svg>