<svg xmlns="http://www.w3.org/2000/svg" xmlns:xlink="http://www.w3.org/1999/xlink" version="1.1" width="12.15000057220459" height="17.30000114440918" viewBox="0.9500000476837158 0.3999999761581421 12.15000057220459 17.30000114440918">
  <!-- Exported by Scratch - http://scratch.mit.edu/ -->
  <g id="ID0.418238028883934">
    <path id="ID0.08608588948845863" fill="#00ff00" stroke="none" d="M 1.95 1.4 L 7 1.4 L 7 6.55 L 1.95 6.55 L 1.95 1.4 M 6.5 2.2 L 6.25 1.9 L 2.65 1.9 L 2.4 2.2 L 2.4 5.8 L 2.65 6.05 L 6.25 6.05 L 6.5 5.8 L 6.5 2.2 M 12.1 11.65 L 12.1 16.7 L 7 16.7 L 7 11.65 L 12.1 11.65 M 11.55 12.4 L 11.35 12.15 L 7.75 12.15 L 7.55 12.4 L 7.55 15.95 L 7.75 16.25 L 11.35 16.25 L 11.55 15.95 L 11.55 12.4 M 11.55 1.4 L 12.1 1.4 L 12.1 1.7 L 2.4 16.7 L 1.95 16.7 L 1.95 16.5 L 11.55 1.4 " stroke-width="1"/>
    <path id="ID0.5223256759345531" fill="none" stroke="#00ff00" stroke-width="2" stroke-linecap="square" stroke-linejoin="miter" d="M 11.55 1.4 L 1.95 16.5 L 1.95 16.7 L 2.4 16.7 L 12.1 1.7 L 12.1 1.4 L 11.55 1.4 M 11.55 12.4 L 11.55 15.95 L 11.35 16.25 L 7.75 16.25 L 7.55 15.95 L 7.55 12.4 L 7.75 12.15 L 11.35 12.15 L 11.55 12.4 M 12.1 11.65 L 7 11.65 L 7 16.7 L 12.1 16.7 L 12.1 11.65 M 6.5 2.2 L 6.5 5.8 L 6.25 6.05 L 2.65 6.05 L 2.4 5.8 L 2.4 2.2 L 2.65 1.9 L 6.25 1.9 L 6.5 2.2 M 1.95 1.4 L 1.95 6.55 L 7 6.55 L 7 1.4 L 1.95 1.4 "/>
  </g>
</svg>