<svg xmlns="http://www.w3.org/2000/svg" xmlns:xlink="http://www.w3.org/1999/xlink" version="1.1" width="12.149999618530273" height="17.350000381469727" viewBox="0.9000000953674316 0.3500000238418579 12.149999618530273 17.350000381469727">
  <!-- Exported by Scratch - http://scratch.mit.edu/ -->
  <g id="ID0.5830521592870355">
    <path id="ID0.4814903801307082" fill="#00ff00" stroke="none" d="M 11.55 15.95 L 11.55 1.35 L 12.05 1.35 L 12.05 16.1 L 12.05 16.4 L 12.05 16.7 L 11.3 16.7 L 11.15 16.4 L 10.95 16.1 L 2.4 2.25 L 2.35 2.15 L 2.35 16.7 L 1.9 16.7 L 1.9 1.35 L 2.65 1.35 L 3.25 2.25 L 11.55 15.95 " stroke-width="1"/>
    <path id="ID0.5676768692210317" fill="none" stroke="#00ff00" stroke-width="2" stroke-linecap="square" stroke-linejoin="miter" d="M 12.05 16.1 L 12.05 1.35 L 11.55 1.35 L 11.55 15.95 M 3.25 2.25 L 2.65 1.35 L 1.9 1.35 L 1.9 16.7 L 2.35 16.7 L 2.35 2.15 M 11.15 16.4 L 11.3 16.7 L 12.05 16.7 L 12.05 16.4 "/>
    <path id="ID0.0918677244335413" fill="none" stroke="#00ff00" stroke-width="2" stroke-linecap="square" stroke-linejoin="bevel" d="M 11.55 15.95 L 3.25 2.25 M 2.35 2.15 L 2.4 2.25 L 10.95 16.1 "/>
    <path id="ID0.5223754518665373" fill="none" stroke="#00ff00" stroke-width="1.4" stroke-linecap="square" stroke-linejoin="round" d="M 10.95 16.1 L 11.15 16.4 M 12.05 16.4 L 12.05 16.1 "/>
  </g>
</svg>