<svg xmlns="http://www.w3.org/2000/svg" xmlns:xlink="http://www.w3.org/1999/xlink" version="1.1" width="12.15000057220459" height="17.350000381469727" viewBox="0.9500000476837158 0.3500000238418579 12.15000057220459 17.350000381469727">
  <!-- Exported by Scratch - http://scratch.mit.edu/ -->
  <g id="ID0.03157526906579733">
    <path id="ID0.022641608957201242" fill="#00ff00" stroke="none" d="M 11.6 11.05 L 11.6 6.2 L 7.05 1.85 L 2.4 6.2 L 2.4 11.05 L 2.7 11.35 L 11.35 11.35 L 11.6 11.05 M 11.6 16.7 L 11.6 12.1 L 11.35 11.9 L 2.7 11.9 L 2.4 12.1 L 2.4 16.7 L 1.95 16.7 L 1.95 6 L 6.75 1.35 L 7.25 1.35 L 12.1 6 L 12.1 16.7 L 11.6 16.7 " stroke-width="1"/>
    <path id="ID0.31393706146627665" fill="none" stroke="#00ff00" stroke-width="2" stroke-linecap="square" stroke-linejoin="miter" d="M 11.6 16.7 L 12.1 16.7 L 12.1 6 L 7.25 1.35 L 6.75 1.35 L 1.95 6 L 1.95 16.7 L 2.4 16.7 L 2.4 12.1 L 2.7 11.9 L 11.35 11.9 L 11.6 12.1 L 11.6 16.7 M 11.6 11.05 L 11.35 11.35 L 2.7 11.35 L 2.4 11.05 L 2.4 6.2 L 7.05 1.85 L 11.6 6.2 L 11.6 11.05 "/>
  </g>
</svg>