<svg xmlns="http://www.w3.org/2000/svg" xmlns:xlink="http://www.w3.org/1999/xlink" version="1.1" width="12.149999618530273" height="17.350000381469727" viewBox="0.9000000953674316 0.3500000238418579 12.149999618530273 17.350000381469727">
  <!-- Exported by Scratch - http://scratch.mit.edu/ -->
  <g id="ID0.8098063594661653">
    <path id="ID0.2961839223280549" fill="#00ff00" stroke="none" d="M 12.05 1.35 L 12.05 9.3 L 2.65 9.3 L 2.35 9.6 L 2.35 16.7 L 1.9 16.7 L 1.9 1.35 L 12.05 1.35 M 11.55 2.15 L 11.3 1.85 L 2.65 1.85 L 2.35 2.15 L 2.35 8.55 L 2.65 8.85 L 11.3 8.85 L 11.55 8.55 L 11.55 2.15 " stroke-width="1"/>
    <path id="ID0.4540287423878908" fill="none" stroke="#00ff00" stroke-width="2" stroke-linecap="square" stroke-linejoin="miter" d="M 11.55 2.15 L 11.55 8.55 L 11.3 8.85 L 2.65 8.85 L 2.35 8.55 L 2.35 2.15 L 2.65 1.85 L 11.3 1.85 L 11.55 2.15 M 12.05 1.35 L 1.9 1.35 L 1.9 16.7 L 2.35 16.7 L 2.35 9.6 L 2.65 9.3 L 12.05 9.3 L 12.05 1.35 "/>
  </g>
</svg>