<svg xmlns="http://www.w3.org/2000/svg" xmlns:xlink="http://www.w3.org/1999/xlink" version="1.1" width="12.200000762939453" height="17.350000381469727" viewBox="0.9000000953674316 0.3500000238418579 12.200000762939453 17.350000381469727">
  <!-- Exported by Scratch - http://scratch.mit.edu/ -->
  <g id="ID0.022639714181423187">
    <path id="ID0.7199914245866239" fill="#00ff00" stroke="none" d="M 2.35 16.7 L 1.9 16.7 L 1.9 1.35 L 2.35 1.35 L 7 6 L 11.55 1.35 L 12.1 1.35 L 12.1 16.7 L 11.55 16.7 L 11.55 2.15 L 8.8 4.95 L 7.25 6.5 L 6.7 6.5 L 5.05 4.85 L 2.35 2.15 L 2.35 16.7 " stroke-width="1"/>
    <path id="ID0.07988008297979832" fill="none" stroke="#00ff00" stroke-width="2" stroke-linecap="square" stroke-linejoin="miter" d="M 11.55 16.7 L 12.1 16.7 L 12.1 1.35 L 11.55 1.35 L 7 6 L 2.35 1.35 L 1.9 1.35 L 1.9 16.7 L 2.35 16.7 M 5.05 4.85 L 6.7 6.5 L 7.25 6.5 L 8.8 4.95 "/>
    <path id="ID0.25673191249370575" fill="none" stroke="#00ff00" stroke-width="2" stroke-linecap="square" stroke-linejoin="bevel" d="M 8.8 4.95 L 11.6 2.75 L 11.55 16.7 M 2.35 16.7 L 2.4 2.75 L 5.05 4.85 "/>
  </g>
</svg>