<svg xmlns="http://www.w3.org/2000/svg" xmlns:xlink="http://www.w3.org/1999/xlink" version="1.1" width="12.200000762939453" height="17.30000114440918" viewBox="0.9000000953674316 0.3999999761581421 12.200000762939453 17.30000114440918">
  <!-- Exported by Scratch - http://scratch.mit.edu/ -->
  <g id="ID0.2418967871926725">
    <path id="ID0.5472155963070691" fill="#00ff00" stroke="none" d="M 11.55 16.7 L 11.55 9.6 L 11.35 9.3 L 1.9 9.3 L 1.9 1.4 L 12.1 1.4 L 12.1 16.7 L 11.55 16.7 M 11.55 2.2 L 11.35 1.9 L 2.65 1.9 L 2.35 2.2 L 2.35 8.55 L 2.65 8.85 L 11.35 8.85 L 11.55 8.55 L 11.55 2.2 " stroke-width="1"/>
    <path id="ID0.6125676413066685" fill="none" stroke="#00ff00" stroke-width="2" stroke-linecap="square" stroke-linejoin="miter" d="M 11.55 2.2 L 11.55 8.55 L 11.35 8.85 L 2.65 8.85 L 2.35 8.55 L 2.35 2.2 L 2.65 1.9 L 11.35 1.9 L 11.55 2.2 M 11.55 16.7 L 12.1 16.7 L 12.1 1.4 L 1.9 1.4 L 1.9 9.3 L 11.35 9.3 L 11.55 9.6 L 11.55 16.7 "/>
  </g>
</svg>