<svg xmlns="http://www.w3.org/2000/svg" xmlns:xlink="http://www.w3.org/1999/xlink" version="1.1" width="12.200000762939453" height="17.30000114440918" viewBox="0.9000000953674316 0.3999999761581421 12.200000762939453 17.30000114440918">
  <!-- Exported by Scratch - http://scratch.mit.edu/ -->
  <g id="ID0.25041238218545914">
    <path id="ID0.7538474183529615" fill="#00ff00" stroke="none" d="M 7.25 15.75 L 7.25 16.7 L 6.7 16.7 L 6.7 15.75 L 7.25 15.75 M 11.65 2.2 L 11.35 1.9 L 1.9 1.9 L 1.9 1.4 L 12.1 1.4 L 12.1 9.3 L 7.5 9.3 L 7.25 9.6 L 7.25 12.7 L 6.7 12.7 L 6.7 8.85 L 11.35 8.85 L 11.65 8.55 L 11.65 2.2 " stroke-width="1"/>
    <path id="ID0.8341142148710787" fill="none" stroke="#00ff00" stroke-width="2" stroke-linecap="square" stroke-linejoin="miter" d="M 11.65 2.2 L 11.65 8.55 L 11.35 8.85 L 6.7 8.85 L 6.7 12.7 L 7.25 12.7 L 7.25 9.6 L 7.5 9.3 L 12.1 9.3 L 12.1 1.4 L 1.9 1.4 L 1.9 1.9 L 11.35 1.9 L 11.65 2.2 M 7.25 15.75 L 6.7 15.75 L 6.7 16.7 L 7.25 16.7 L 7.25 15.75 "/>
  </g>
</svg>