<svg xmlns="http://www.w3.org/2000/svg" xmlns:xlink="http://www.w3.org/1999/xlink" version="1.1" width="12.200000762939453" height="17.350000381469727" viewBox="0.9000000953674316 0.3500000238418579 12.200000762939453 17.350000381469727">
  <!-- Exported by Scratch - http://scratch.mit.edu/ -->
  <g id="ID0.8815817632712424">
    <path id="ID0.9666180061176419" fill="#00ff00" stroke="none" d="M 12.1 1.35 L 12.1 1.85 L 2.65 1.85 L 2.35 2.15 L 2.35 8.55 L 2.65 8.85 L 9.75 8.85 L 9.75 9.3 L 2.65 9.3 L 2.35 9.6 L 2.35 15.95 L 2.65 16.25 L 12.1 16.25 L 12.1 16.7 L 1.9 16.7 L 1.9 1.35 L 12.1 1.35 " stroke-width="1"/>
    <path id="ID0.5955975009128451" fill="none" stroke="#00ff00" stroke-width="2" stroke-linecap="square" stroke-linejoin="miter" d="M 12.1 1.35 L 1.9 1.35 L 1.9 16.7 L 12.1 16.7 L 12.1 16.25 L 2.65 16.25 L 2.35 15.95 L 2.35 9.6 L 2.65 9.3 L 9.75 9.3 L 9.75 8.85 L 2.65 8.85 L 2.35 8.55 L 2.35 2.15 L 2.65 1.85 L 12.1 1.85 L 12.1 1.35 "/>
  </g>
</svg>