<svg xmlns="http://www.w3.org/2000/svg" xmlns:xlink="http://www.w3.org/1999/xlink" version="1.1" width="12.149999618530273" height="17.30000114440918" viewBox="0.9000000953674316 0.3999999761581421 12.149999618530273 17.30000114440918">
  <!-- Exported by Scratch - http://scratch.mit.edu/ -->
  <g id="ID0.24877555947750807">
    <path id="ID0.4567662626504898" fill="#00ff00" stroke="none" d="M 12.05 1.4 L 12.05 1.7 L 7.25 9.1 L 12.05 16.5 L 12.05 16.7 L 11.5 16.7 L 6.95 9.6 L 2.35 16.7 L 1.9 16.7 L 1.9 16.5 L 6.6 9.1 L 1.9 1.7 L 1.9 1.4 L 2.35 1.4 L 6.95 8.55 L 11.5 1.4 L 12.05 1.4 " stroke-width="1"/>
    <path id="ID0.2804128360003233" fill="none" stroke="#00ff00" stroke-width="2" stroke-linecap="square" stroke-linejoin="miter" d="M 12.05 1.4 L 11.5 1.4 L 6.95 8.55 L 2.35 1.4 L 1.9 1.4 L 1.9 1.7 L 6.6 9.1 L 1.9 16.5 L 1.9 16.7 L 2.35 16.7 L 6.95 9.6 L 11.5 16.7 L 12.05 16.7 L 12.05 16.5 L 7.25 9.1 L 12.05 1.7 L 12.05 1.4 "/>
  </g>
</svg>