<svg xmlns="http://www.w3.org/2000/svg" xmlns:xlink="http://www.w3.org/1999/xlink" version="1.1" width="12.15000057220459" height="17.30000114440918" viewBox="0.9500000476837158 0.3999999761581421 12.15000057220459 17.30000114440918">
  <!-- Exported by Scratch - http://scratch.mit.edu/ -->
  <g id="ID0.4790356047451496">
    <path id="ID0.13958079321309924" fill="#00ff00" stroke="none" d="M 12.1 8.85 L 12.1 16.7 L 1.95 16.7 L 1.95 1.4 L 2.4 1.4 L 2.4 8.55 L 2.7 8.85 L 12.1 8.85 M 11.6 15.95 L 11.6 9.6 L 11.4 9.3 L 2.7 9.3 L 2.4 9.6 L 2.4 15.95 L 2.7 16.25 L 11.4 16.25 L 11.6 15.95 " stroke-width="1"/>
    <path id="ID0.9376085242256522" fill="none" stroke="#00ff00" stroke-width="2" stroke-linecap="square" stroke-linejoin="miter" d="M 11.6 15.95 L 11.4 16.25 L 2.7 16.25 L 2.4 15.95 L 2.4 9.6 L 2.7 9.3 L 11.4 9.3 L 11.6 9.6 L 11.6 15.95 M 12.1 8.85 L 2.7 8.85 L 2.4 8.55 L 2.4 1.4 L 1.95 1.4 L 1.95 16.7 L 12.1 16.7 L 12.1 8.85 "/>
  </g>
</svg>