<svg xmlns="http://www.w3.org/2000/svg" xmlns:xlink="http://www.w3.org/1999/xlink" version="1.1" width="12.15000057220459" height="17.350000381469727" viewBox="0.9500000476837158 0.3500000238418579 12.15000057220459 17.350000381469727">
  <!-- Exported by Scratch - http://scratch.mit.edu/ -->
  <g id="ID0.966063629835844">
    <path id="ID0.5141629371792078" fill="#00ff00" stroke="none" d="M 11.6 11.35 L 9.55 9.3 L 2.7 9.3 L 2.4 9.6 L 2.4 15.95 L 2.7 16.25 L 9.55 16.25 L 11.6 14.15 L 11.6 11.35 M 11.6 3.95 L 9.55 1.85 L 2.7 1.85 L 2.4 2.15 L 2.4 8.55 L 2.7 8.85 L 9.55 8.85 L 11.6 6.75 L 11.6 3.95 M 9.8 1.35 L 12.1 3.65 L 12.1 7.05 L 10.1 9.05 L 12.1 11.05 L 12.1 14.45 L 9.8 16.7 L 1.95 16.7 L 1.95 1.35 L 9.8 1.35 " stroke-width="1"/>
    <path id="ID0.600689856801182" fill="none" stroke="#00ff00" stroke-width="2" stroke-linecap="square" stroke-linejoin="miter" d="M 9.8 1.35 L 1.95 1.35 L 1.95 16.7 L 9.8 16.7 L 12.1 14.45 L 12.1 11.05 L 10.1 9.05 L 12.1 7.05 L 12.1 3.65 L 9.8 1.35 M 11.6 3.95 L 11.6 6.75 L 9.55 8.85 L 2.7 8.85 L 2.4 8.55 L 2.4 2.15 L 2.7 1.85 L 9.55 1.85 L 11.6 3.95 M 11.6 11.35 L 11.6 14.15 L 9.55 16.25 L 2.7 16.25 L 2.4 15.95 L 2.4 9.6 L 2.7 9.3 L 9.55 9.3 L 11.6 11.35 "/>
  </g>
</svg>