<svg xmlns="http://www.w3.org/2000/svg" xmlns:xlink="http://www.w3.org/1999/xlink" version="1.1" width="12.199999809265137" height="17.30000114440918" viewBox="0.9500000476837158 0.3999999761581421 12.199999809265137 17.30000114440918">
  <!-- Exported by Scratch - http://scratch.mit.edu/ -->
  <g id="ID0.007194355130195618">
    <path id="ID0.6057885191403329" fill="#00ff00" stroke="none" d="M 8.85 7.05 L 8.55 6.8 L 5.45 6.8 L 5.25 7.05 L 5.25 11.1 L 5.45 11.4 L 8.55 11.4 L 8.85 11.1 L 8.85 7.05 M 8.85 1.4 L 9.35 1.4 L 9.35 6.05 L 9.6 6.25 L 12.15 6.25 L 12.15 6.8 L 9.6 6.8 L 9.35 7.05 L 9.35 11.1 L 9.6 11.4 L 12.15 11.4 L 12.15 11.95 L 9.6 11.95 L 9.35 12.15 L 9.35 16.7 L 8.85 16.7 L 8.85 12.15 L 8.55 11.95 L 5.45 11.95 L 5.25 12.15 L 5.25 16.7 L 4.7 16.7 L 4.7 12.15 L 4.5 11.95 L 1.95 11.95 L 1.95 11.4 L 4.5 11.4 L 4.7 11.1 L 4.7 7.05 L 4.5 6.8 L 1.95 6.8 L 1.95 6.25 L 4.5 6.25 L 4.7 6.05 L 4.7 1.4 L 5.25 1.4 L 5.25 6.05 L 5.45 6.25 L 8.55 6.25 L 8.85 6.05 L 8.85 1.4 " stroke-width="1"/>
    <path id="ID0.735213806387037" fill="none" stroke="#00ff00" stroke-width="2" stroke-linecap="square" stroke-linejoin="miter" d="M 8.85 1.4 L 8.85 6.05 L 8.55 6.25 L 5.45 6.25 L 5.25 6.05 L 5.25 1.4 L 4.7 1.4 L 4.7 6.05 L 4.5 6.25 L 1.95 6.25 L 1.95 6.8 L 4.5 6.8 L 4.7 7.05 L 4.7 11.1 L 4.5 11.4 L 1.95 11.4 L 1.95 11.95 L 4.5 11.95 L 4.7 12.15 L 4.7 16.7 L 5.25 16.7 L 5.25 12.15 L 5.45 11.95 L 8.55 11.95 L 8.85 12.15 L 8.85 16.7 L 9.35 16.7 L 9.35 12.15 L 9.6 11.95 L 12.15 11.95 L 12.15 11.4 L 9.6 11.4 L 9.35 11.1 L 9.35 7.05 L 9.6 6.8 L 12.15 6.8 L 12.15 6.25 L 9.6 6.25 L 9.35 6.05 L 9.35 1.4 L 8.85 1.4 M 8.85 7.05 L 8.85 11.1 L 8.55 11.4 L 5.45 11.4 L 5.25 11.1 L 5.25 7.05 L 5.45 6.8 L 8.55 6.8 L 8.85 7.05 "/>
  </g>
</svg>