<svg xmlns="http://www.w3.org/2000/svg" xmlns:xlink="http://www.w3.org/1999/xlink" version="1.1" width="12.149999618530273" height="17.350000381469727" viewBox="0.9000000953674316 0.3500000238418579 12.149999618530273 17.350000381469727">
  <!-- Exported by Scratch - http://scratch.mit.edu/ -->
  <g id="ID0.6283894265070558">
    <path id="ID0.2792892614379525" fill="#00ff00" stroke="none" d="M 9.05 14 L 12.05 16.25 L 12.05 16.7 L 11.85 16.7 L 2.35 9.65 L 2.35 16.7 L 1.9 16.7 L 1.9 1.35 L 12.05 1.35 L 12.05 9.3 L 2.8 9.3 L 9.05 14 M 11.55 2.15 L 11.3 1.85 L 2.65 1.85 L 2.35 2.15 L 2.35 8.55 L 2.65 8.85 L 11.3 8.85 L 11.55 8.55 L 11.55 2.15 " stroke-width="1"/>
    <path id="ID0.34791853511705995" fill="none" stroke="#00ff00" stroke-width="2" stroke-linecap="square" stroke-linejoin="miter" d="M 11.55 2.15 L 11.55 8.55 L 11.3 8.85 L 2.65 8.85 L 2.35 8.55 L 2.35 2.15 L 2.65 1.85 L 11.3 1.85 L 11.55 2.15 M 2.8 9.3 L 12.05 9.3 L 12.05 1.35 L 1.9 1.35 L 1.9 16.7 L 2.35 16.7 L 2.35 9.65 L 11.85 16.7 L 12.05 16.7 L 12.05 16.25 L 9.05 14 "/>
    <path id="ID0.40485306875780225" fill="none" stroke="#00ff00" stroke-width="2" stroke-linecap="square" stroke-linejoin="bevel" d="M 9.05 14 L 2.8 9.3 "/>
  </g>
</svg>