<svg xmlns="http://www.w3.org/2000/svg" xmlns:xlink="http://www.w3.org/1999/xlink" version="1.1" width="12.200000762939453" height="17.350000381469727" viewBox="0.9000000953674316 0.3500000238418579 12.200000762939453 17.350000381469727">
  <!-- Exported by Scratch - http://scratch.mit.edu/ -->
  <g id="ID0.5709149409085512">
    <path id="ID0.019213803578168154" fill="#00ff00" stroke="none" d="M 12.1 1.85 L 7.55 1.85 L 7.25 2.15 L 7.25 15.95 L 7.55 16.25 L 12.1 16.25 L 12.1 16.7 L 1.9 16.7 L 1.9 16.25 L 6.5 16.25 L 6.7 15.95 L 6.7 2.15 L 6.5 1.85 L 1.9 1.85 L 1.9 1.35 L 12.1 1.35 L 12.1 1.85 " stroke-width="1"/>
    <path id="ID0.18575535854324698" fill="none" stroke="#00ff00" stroke-width="2" stroke-linecap="square" stroke-linejoin="miter" d="M 12.1 1.85 L 12.1 1.35 L 1.9 1.35 L 1.9 1.85 L 6.5 1.85 L 6.7 2.15 L 6.7 15.95 L 6.5 16.25 L 1.9 16.25 L 1.9 16.7 L 12.1 16.7 L 12.1 16.25 L 7.55 16.25 L 7.25 15.95 L 7.25 2.15 L 7.55 1.85 L 12.1 1.85 "/>
  </g>
</svg>